<svg xmlns="http://www.w3.org/2000/svg" viewBox="0 0 44.66 104.78">
  <path fill="#" d="M43.39 0h-.12c-2.82 21.52-5.38 22.56-6.96 22.68-1.43.1-3.64-1.77-4.92-2.52a15.88 15.88 0 0 0-9.06-2.54 15.9 15.9 0 0 0-9.06 2.54c-1.28.75-3.5 2.63-4.92 2.52C6.77 22.56 4.2 21.52 1.39 0h-.12C-.8 12.2-.3 50.2 2.47 63.6c2.6 18.52 10.1 35.1 13.44 39.6.68 1.04 3.53 1.57 6.42 1.58 2.89-.01 5.74-.54 6.42-1.58 3.33-4.5 10.83-21.08 13.44-39.6 2.76-13.4 3.27-51.4 1.2-63.6zM22.33 28.15a100.12 100.12 0 0 0-10.14.53c1.13-1.75 8.99-3.24 10.14-3.45 1.15.21 9 1.7 10.14 3.45a100.14 100.14 0 0 0-10.14-.53z"/>
</svg>