<svg xmlns="http://www.w3.org/2000/svg" viewBox="0 0 141.67 139.54">
  <path fill="#" d="M71.83 21.46V1a1 1 0 0 0-2 0v20.46l1-.02 1 .02zM45.77 28.44c.57-.35 1.15-.68 1.73-1L37.26 9.74a1 1 0 0 0-1.73 1zM10.5 34.73a1 1 0 0 0 .36 1.36l17.68 10.27 1-1.73-17.67-10.27a1 1 0 0 0-1.37.37zM106.41 8.52a1 1 0 0 0-1.37.36l-10.8 18.6c.59.33 1.17.66 1.74 1l10.8-18.6a1 1 0 0 0-.37-1.36zM131.78 35.67a1 1 0 1 0-1-1.73L112.17 44.7c.34.56.67 1.14 1 1.73zM22.5 69.77l.03-1H1a1 1 0 0 0 0 2h21.52l-.02-1zM140.67 68.77h-21.53l.03 1-.03 1h21.53a1 1 0 0 0 0-2zM130.8 103.45l-17.68-10.27c-.32.58-.65 1.16-1 1.73l17.68 10.27a1 1 0 0 0 1-1.73zM9.88 103.87a1 1 0 1 0 1 1.73L29.5 94.84c-.35-.57-.67-1.15-1-1.74zM95.9 111.1c-.57.35-1.15.67-1.73 1l10.23 17.7a1 1 0 0 0 1.73-1zM34.9 129.65a1 1 0 1 0 1.72 1l10.8-18.6a52.9 52.9 0 0 1-1.73-1zM69.83 118.08v20.46a1 1 0 0 0 2 0v-20.46l-1 .02-1-.02zM104.74 51.89a1.5 1.5 0 0 0-1.5-2.6L74.81 65.74a5.66 5.66 0 0 0-7.95-.01L46.52 53.91a1.5 1.5 0 0 0-1.5 2.6l20.34 11.82a5.67 5.67 0 1 0 11.14 1.44 5.6 5.6 0 0 0-.2-1.43zm-29.4 14.46l-.05-.08.05.08zm.4.59l-.02-.04zm-9.78-.05l-.03.04.03-.04zm.42-.62l-.05.07.05-.07zm4.45 6.17a2.67 2.67 0 1 1 2.67-2.67 2.67 2.67 0 0 1-2.67 2.67z"/>
</svg>