<svg xmlns="http://www.w3.org/2000/svg" viewBox="0 0 57 97.68">
  <path fill="#" d="M51.12 15.24c-.4-5.45-.6-10.85-2.52-15.24-.76 0-1.53 7.31-2.28 10.92-1.48 7.14-3.71 8.28-4.44 8.28-.86-3.86-4.38-4.24-7.8-5.88a11.11 11.11 0 0 0-3.6-1.2 14.68 14.68 0 0 0-1.98.12 14.51 14.51 0 0 0-1.98-.12 11.13 11.13 0 0 0-3.6 1.2c-3.41 1.64-6.94 2.02-7.8 5.88-.72 0-2.96-1.14-4.44-8.28C9.93 7.32 9.16 0 8.4 0 6.49 4.39 6.27 9.79 5.88 15.24 5 38.78 0 51.53 0 62.4c0 26.07 11.7 35.28 28.5 35.28S57 88.47 57 62.4c0-10.87-5-23.62-5.88-47.16zm-16.68 9.72c-2.8 1.17-5.35-.71-5.88-.72h-.12c-.53.01-3.09 1.9-5.88.72-.78-3.58 2.4-4.04 5.94-3.9 3.55-.14 6.73.32 5.94 3.9z"/>
</svg>