<svg xmlns="http://www.w3.org/2000/svg" viewBox="0 0 487 487">
  <path fill="#" d="M403.88 196.56h-9.48v-44.39C394.4 70.07 329.25 1.5 247.8.03c-2.22-.04-6.67-.04-8.9 0C157.5 1.49 92.35 70.08 92.35 152.18v44.38h-9.49c-14.62 0-26.54 15.09-26.54 33.71V452.9c0 18.61 11.92 33.83 26.54 33.83h321.03c14.62 0 26.54-15.22 26.54-33.83V230.27c0-18.62-11.92-33.7-26.54-33.7zm-130.44 144.8v67.27c0 7.7-6.45 14.23-14.16 14.23h-31.83a14.36 14.36 0 0 1-14.16-14.23v-67.27a40.03 40.03 0 0 1-11.83-28.8c0-21.33 16.5-39.66 37.46-40.5 2.22-.1 6.67-.1 8.9 0 20.96.84 37.45 19.17 37.45 40.5a40.04 40.04 0 0 1-11.83 28.8zm58.45-144.8H154.85v-44.39c0-48.9 39.74-89.34 88.52-89.34 48.77 0 88.52 40.44 88.52 89.34v44.4z"/>
</svg>