<svg xmlns="http://www.w3.org/2000/svg" viewBox="0 0 100 100">
  <path fill="#" d="M75.45 20h-52.4a3.55 3.55 0 0 0-3.55 3.55v52.4a3.55 3.55 0 0 0 3.55 3.55h52.4A3.55 3.55 0 0 0 79 75.95v-52.4A3.55 3.55 0 0 0 75.45 20zm-33.8 22.86a10.1 10.1 0 0 1 17.74 6.7 10.15 10.15 0 0 1-20.28 0c0-2.57.97-4.91 2.55-6.7zm31.09 30.38H25.76V42.86h8.53a16.42 16.42 0 0 0 14.96 23.09 16.42 16.42 0 0 0 14.96-23.09h8.53v30.38zm0-40.38a2.86 2.86 0 0 1-2.86 2.85h-3.74a2.86 2.86 0 0 1-2.85-2.85v-3.74a2.86 2.86 0 0 1 2.85-2.86h3.74a2.86 2.86 0 0 1 2.86 2.86v3.74z"/>
</svg>