<svg xmlns="http://www.w3.org/2000/svg" viewBox="0 0 22.07 21.21">
  <path fill="#826550" d="M21.81 0h-.1c-.99 3.3-1.25 7.32-4.01 8.85-.51-1.44-1.76-2.1-3.19-2.73A9.47 9.47 0 0 0 11.68 5a.94.94 0 0 0-.65.14.93.93 0 0 0-.64-.14 9.46 9.46 0 0 0-2.83 1.13c-1.43.63-2.68 1.29-3.19 2.73C1.61 7.32 1.35 3.3.36 0h-.1A6.27 6.27 0 0 0 0 1.03a110.46 110.46 0 0 0 .82 12.19c.53 2.7 2.6 4.64 4.63 5.92 1.41.88 3.65 2.07 5.58 2.07s4.17-1.19 5.58-2.07c2.03-1.28 4.1-3.22 4.63-5.92a110.21 110.21 0 0 0 .83-12.2A6.17 6.17 0 0 0 21.8 0zm-5.97 12.03a1.8 1.8 0 0 1-1.44 1.49c-1.28.07-1.93-1.9-3.37-1.88-1.44-.01-2.1 1.95-3.37 1.88a1.79 1.79 0 0 1-1.44-1.5 3.24 3.24 0 0 1 .72-2.41c.47-.46 1.21-.4 2-.52a3.7 3.7 0 0 0 2.09-.83 3.7 3.7 0 0 0 2.08.83c.8.12 1.54.06 2 .52a3.24 3.24 0 0 1 .73 2.42z"/>
</svg>
