<svg xmlns="http://www.w3.org/2000/svg" viewBox="0 0 62.4 78.49">
  <path fill="#" d="M62.4 42c0-5.21-2.37-7.78-3.6-9.96a55.98 55.98 0 0 1-4.2-17.64C54.53 9.5 52.9 1.95 51.72 0c-.87 0-1.52 7.78-2.28 11.64-1.43 7.04-3.77 8.93-4.44 9-.76-2.8-4.11-7.36-13.68-7.73l-.12-.04-.13.05c-9.56.35-12.92 4.91-13.67 7.72-.68-.07-3.01-1.96-4.44-9C12.2 7.78 11.54 0 10.68 0 9.49 1.95 7.87 9.5 7.8 14.4a56.08 56.08 0 0 1-4.2 17.64C2.37 34.23 0 36.79 0 42c0 3.74 5.2 7.2 5.64 11.4.12 1.22-.03 2.35.12 3.36 2 17.48 17.87 21.73 25.44 21.73s23.44-4.24 25.44-21.73c.15-1.01 0-2.14.12-3.36.44-4.2 5.64-7.65 5.64-11.4zM33.24 26.76a20.75 20.75 0 0 0-4.08 0c-1.73.34-5.76.99-5.76-1.08 0-1.07 6.72-2.3 7.8-2.3s7.8 1.23 7.8 2.3c0 2.07-4.03 1.42-5.76 1.08z"/>
</svg>