<svg xmlns="http://www.w3.org/2000/svg" viewBox="0 0 57.68 68.64">
  <path fill="#" d="M51.6 22.2c.12-1.7.47-3.5.72-5.4.7-5.43 1.6-11.67-.12-16.8h-.24c-1.32 3.74-1.26 8.35-2.16 12.36a19.71 19.71 0 0 1-3.24 7.56c-.53.69-1.06 1.55-1.92 1.8-.66-3.92-4.28-4.94-7.68-6.36-2.13-.89-3.97-2.02-6.12-2.16a10.74 10.74 0 0 0-2 .23 10.68 10.68 0 0 0-2-.23c-2.15.14-3.99 1.27-6.12 2.16-3.4 1.42-7.02 2.44-7.68 6.36-.86-.25-1.4-1.11-1.92-1.8a19.71 19.71 0 0 1-3.24-7.56C6.98 8.35 7.05 3.74 5.72 0h-.24c-1.72 5.13-.82 11.37-.12 16.8.25 1.89.6 3.7.72 5.4.8 11.05-6.95 23.12-6 28.92.93 7.53 8.4 9.4 14.16 12.36 4.35 2.24 8.31 4.95 13.32 5.16h2.56c5-.2 8.97-2.92 13.32-5.16 5.76-2.96 13.23-4.83 14.16-12.36.95-5.8-6.8-17.87-6-28.92zm-22.76 3.75a35.95 35.95 0 0 1-7.16-.5c.66-2.06 4.04-1.56 7.08-1.56h.16c3.05 0 6.42-.5 7.08 1.56a36 36 0 0 1-7.16.5z"/>
</svg>