<svg xmlns="http://www.w3.org/2000/svg" viewBox="0 0 94 92">
  <g fill="#826550">
    <path d="M47.08 8.17a9.1 9.1 0 1 1-9.1 9.1 9.1 9.1 0 0 1 9.1-9.1z"/>
    <path d="M67.46 26.39H26.7a2.83 2.83 0 0 0-2.82 2.81v4.47a2.83 2.83 0 0 0 2.82 2.82h.82v45.4h-.82a2.83 2.83 0 0 0-2.82 2.81v4.47A2.83 2.83 0 0 0 26.7 92h40.75a2.83 2.83 0 0 0 2.82-2.82V84.7a2.83 2.83 0 0 0-2.82-2.82h-.83V36.5h.83a2.83 2.83 0 0 0 2.82-2.82V29.2a2.83 2.83 0 0 0-2.82-2.81zm-33.8 10.1h13.2l-13.2 13.2zM60.5 81.9H47.03L60.5 68.4zm0-28.72L33.66 80V64.93L60.5 38.1z"/>
    <path d="M47.08 0a47.08 47.08 0 0 0-28.2 84.79v-.09a7.77 7.77 0 0 1 1.19-4.1 43.08 43.08 0 1 1 54.03 0 7.77 7.77 0 0 1 1.18 4.1v.09A47.08 47.08 0 0 0 47.08 0z"/>
  </g>
</svg>
